<?xml version="1.0" encoding="UTF-8"?>
<svg width="178px" height="16.9665813px" viewBox="0 0 178 16.9665813" version="1.1" xmlns="http://www.w3.org/2000/svg" xmlns:xlink="http://www.w3.org/1999/xlink">
    <title>Atom/Footer/Atom/Logo/Red-Icon</title>
    <defs>
        <rect id="path-1" x="0" y="0" width="149" height="16"></rect>
    </defs>
    <g id="Propuestas" stroke="none" stroke-width="1" fill="none" fill-rule="evenodd">
        <g id="Main-Copy-3" transform="translate(-176, -3048)">
            <g id="Group-4" transform="translate(0, 2980)">
                <g id="Atom/Footer/Atom/Logo/Red-Icon" transform="translate(176, 68)">
                    <g id="logo" transform="translate(29, 3)">
                        <mask id="mask-2" fill="white">
                            <use xlink:href="#path-1"></use>
                        </mask>
                        <g id="Clip" fill-rule="nonzero"></g>
                        <path d="M77.5,0 C78.3029033,0 79,0.58615143 79,1.26127218 L79,11.7387279 C79,12.4138487 78.3029033,13 77.5,13 C76.6970967,13 76,12.4138487 76,11.7387279 L76,1.26127218 C76,0.58615143 76.6970967,0 77.5,0 Z" id="Vector" fill="#E1111C" fill-rule="nonzero" mask="url(#mask-2)"></path>
                        <path d="M93.167949,0.392709311 C93.8071647,0.524366832 94.2729476,0.914275587 94.1490686,1.56749944 C94.0202345,2.2207233 93.4256219,2.69671604 92.7467649,2.57012227 C90.3187362,2.13463968 88.1929705,1.96247216 86.4883953,2.30680723 C84.9572507,2.6106323 83.807649,3.26385634 83.1238368,4.57030405 C82.7819308,5.22352791 82.5292209,5.74509448 82.4846245,6.26666082 C82.440028,6.74771716 82.3557942,7.39587694 82.6977003,7.91744327 L82.9107686,7.74527614 C83.1238405,8.04910121 83.2080749,8.53015686 83.5499809,8.83398193 C83.9315283,9.137807 84.3576732,9.40112261 84.8284135,9.61886391 C87.4249175,10.8797379 91.3840929,11.269647 94.3621445,10.0948568 C95.0013601,9.83154173 95.6802163,10.1809401 95.8932882,10.793654 C96.1509565,11.4468778 95.9378852,11.9228704 95.2986695,12.1406117 C91.7210437,13.5331432 87.1226531,13.143234 84.0157675,11.619045 C83.3765518,11.3152199 82.7819377,10.9658213 82.2715562,10.5303387 C81.7165782,10.0948561 81.2904344,9.61886355 80.9088871,9.09729721 C80.1854336,8.05416454 79.9277638,7.05154208 80.0169567,6.0084094 C80.1011944,5.05136048 80.4431002,4.13988508 80.9534817,3.18283616 C82.1873167,1.31431202 83.8076549,0.615514338 86.0176565,0.180031747 C88.1483756,-0.123793324 90.4872072,-0.0377095339 93.167949,0.397773057 L93.167949,0.392709311 Z" id="Vector" fill="#E1111C" fill-rule="nonzero" mask="url(#mask-2)"></path>
                        <path d="M88.1328789,6 L81,6 L81,8 L88.1328789,8 C88.6272844,8 88.9968899,7.56250036 88.9968899,6.97727302 C89.0400904,6.48863658 88.6272844,6 88.1328789,6 Z" id="Vector" fill="#E1111C" fill-rule="nonzero" mask="url(#mask-2)"></path>
                        <path d="M99.4213665,3.65393224 L99.4213665,11.4483362 C99.4213665,12.1133349 98.8438972,12.6906981 98.1787785,12.6906981 C97.5136597,12.6906981 97.0290017,12.1133349 97.0290017,11.4483362 L97.0290017,4.45296131 C96.6732405,1.48366461 99.6430692,-1.88256857 103.051159,1.26199895 C103.097562,1.30839421 103.138815,1.34963443 103.185219,1.39602969 C103.216154,1.42695986 103.23162,1.45617161 103.23162,1.4836651 C105.046518,3.87559839 106.376756,6.48919882 108.057599,9.01000783 L108.057599,9.05640317 C108.145251,9.23167415 108.232904,9.36570431 108.325711,9.54613031 C109.300188,11.0050034 110.718074,11.0050032 110.764478,9.14919286 C110.810882,7.55628901 110.810883,3.1693595 110.676828,1.30839416 C110.630424,0.643395467 111.254289,0.0660321625 111.919408,0.0660321625 C112.584527,0.0660321625 112.981542,0.643395467 112.981542,1.30839416 L112.981542,7.81919547 C113.115597,9.85543187 112.491726,11.5411262 112.007066,12.0256989 C111.341947,12.7783331 110.455116,13 109.527043,13 C109.35174,13 109.171283,13 109.037228,12.9536047 C107.134679,12.5566675 103.412078,5.91183479 102.746959,4.98392963 C102.478849,4.62823264 102.262295,4.27769071 101.994185,3.92199373 C101.818883,3.65393224 101.59718,3.34463062 101.32907,3.03532888 C100.266942,2.06102845 99.4265196,2.86005783 99.4265196,3.65393224 L99.4213665,3.65393224 Z M108.057599,9.01516199 C108.145251,9.19043297 108.191652,9.37085941 108.2329,9.59252565 L108.057599,9.01516199 Z" id="Vector" fill="#E1111C" fill-rule="nonzero" mask="url(#mask-2)"></path>
                        <path d="M57.3526434,0.758797343 C57.0896921,0.140412097 56.3514057,-0.168780457 55.744595,0.0940332568 C55.1377844,0.362000176 54.8343786,1.11436887 55.0922731,1.73275412 C56.3109512,4.65462433 58.2224052,7.71047825 60.2602776,10.055189 C61.6053746,11.6475309 62.864504,12.80185 64.1691468,12.9770592 C65.5142437,13.1522683 66.6469587,12.3122946 68.2954609,10.8539362 C69.7720334,9.52440797 70.6873074,8.06604929 71.6379773,6.38094957 C72.5937041,4.7422287 73.331991,3.14988692 73.8983475,1.86673758 C74.1612988,1.24835233 73.8983491,0.495983644 73.2915385,0.228016724 C72.6847278,-0.0399501952 71.9464375,0.228016647 71.6834863,0.846401893 C71.1626405,2.08832559 70.3788409,3.59306294 69.509079,5.13902599 C68.7707928,6.38094969 66.0755417,10.7611791 64.3410746,10.539591 C62.1666698,10.2303984 58.475242,3.41270051 57.3475855,0.753644137 L57.3526434,0.758797343 Z" id="Vector" fill="#E1111C" fill-rule="nonzero" mask="url(#mask-2)"></path>
                        <path d="M52.5,0 C53.302907,0 54,0.58615143 54,1.26127218 L54,11.7387279 C54,12.4138487 53.302907,13 52.5,13 C51.6970978,13 51,12.4138487 51,11.7387279 L51,1.26127218 C51,0.58615143 51.6970978,0 52.5,0 Z" id="Vector" fill="#E1111C" fill-rule="nonzero" mask="url(#mask-2)"></path>
                        <path d="M1.54652022,2.83771718 C0.902181663,3.01169636 0.217884073,2.70467428 0.0430635317,2.04457681 C-0.126762142,1.38447934 0.217884099,0.683445618 0.86222266,0.509466434 C6.44149551,-0.590696096 9.78806055,0.243380695 12.5352405,1.56357563 C13.6490972,2.31066273 14.7679487,3.1447394 15.2824205,4.11185897 C15.8418463,5.16596811 16.0965842,6.0921515 15.9667176,7.187197 C15.7968919,8.85535034 14.8528618,10.4416317 13.0896717,11.4957408 C12.2305536,12.0227954 11.2865227,12.3758706 10.3025328,12.5959031 C9.35850184,12.8159356 8.45942377,12.9029255 7.55535184,12.9489788 C6.6113209,12.9950321 5.83711584,13.0359684 5.06790546,12.9489788 C4.25374121,12.8619892 3.43957708,12.5959028 2.53550515,12.1558378 C2.19085893,11.9818586 1.76129975,11.6287836 1.67638691,11.2757082 L1.6314331,11.3626978 L1.6314331,4.33189114 C2.06099216,3.09868571 3.68932055,3.49781447 3.73427441,4.33189114 L3.90410016,10.04762 C3.64436678,11.2347721 6.78114683,10.7947066 7.42049052,10.7486532 C8.23465477,10.7025999 9.04881926,10.6156101 9.8230245,10.441631 C10.5522759,10.2676518 11.2365739,10.0476197 11.8809125,9.64849095 C12.9548102,9.03444675 13.4692812,7.84729435 13.5541941,6.96716435 C13.5991479,6.39405645 13.4692819,5.73395873 13.1246357,5.16596787 C12.7799895,4.5058704 12.2255584,3.89182641 11.4513531,3.40570811 C9.39346562,2.21855607 6.3865519,1.51752236 1.53653049,2.83260027 L1.54652022,2.83771718 Z" id="Vector" fill="#E1111C" fill-rule="nonzero" mask="url(#mask-2)"></path>
                        <path d="M34.3526434,0.758797343 C34.0896921,0.140412097 33.3514057,-0.168780457 32.744595,0.0940332568 C32.1377844,0.362000176 31.8343786,1.11436887 32.0922731,1.73275412 C33.3109512,4.65462433 35.2224052,7.71047825 37.2602776,10.055189 C38.6053746,11.6475309 39.864504,12.80185 41.1691468,12.9770592 C42.5142437,13.1522683 43.6469587,12.3122946 45.2954609,10.8539362 C46.7720334,9.52440797 47.6873074,8.06604929 48.6379773,6.38094957 C49.5937041,4.7422287 50.331991,3.14988692 50.8983475,1.86673758 C51.1612988,1.24835233 50.8983452,0.495983644 50.2915346,0.228016724 C49.6847239,-0.0399501952 48.9464375,0.228016647 48.6834863,0.846401893 C48.1626405,2.08832559 47.3788448,3.59306294 46.5090829,5.13902599 C45.7707966,6.38094969 43.0755455,10.7611791 41.3410785,10.539591 C39.1666736,10.2303984 35.475242,3.41270051 34.3475855,0.753644137 L34.3526434,0.758797343 Z" id="Vector" fill="#E1111C" fill-rule="nonzero" mask="url(#mask-2)"></path>
                        <path d="M32.6473581,12.2412017 C32.9103093,12.8595869 33.6485957,13.16878 34.2554064,12.9059663 C34.862217,12.6379993 35.1656228,11.8856305 34.9077283,11.2672453 C33.6890502,8.34537505 31.7775934,5.289522 29.7397209,2.94481127 C28.394624,1.35246937 27.1354922,0.198150167 25.8308494,0.0229410196 C24.4857524,-0.152268128 23.3530394,0.687705151 21.7045372,2.14606359 C20.2279646,3.47559178 19.3126917,4.93395022 18.3620217,6.61904994 C17.406295,8.25777081 16.6680101,9.85011234 16.1016535,11.1332617 C15.8387022,11.7516469 16.1016538,12.5040158 16.7084645,12.7719827 C17.3152751,13.0399496 18.0535596,12.7719823 18.3165108,12.1535971 C18.8373566,10.9116734 19.6211552,9.40693657 20.4909171,7.86097351 C21.2292034,6.61904982 23.9244525,2.23882144 25.6589196,2.46040948 C27.8333245,2.76960211 31.5247556,9.54607299 32.652412,12.246355 L32.6473581,12.2412017 Z" id="Vector" fill="#E1111C" fill-rule="nonzero" mask="url(#mask-2)"></path>
                        <path d="M115.547078,2.84283433 C114.902669,3.01681352 114.2183,2.70979131 114.04346,2.04969384 C113.873616,1.38959637 114.213307,0.688562648 114.857715,0.509466434 C120.437595,-0.590696096 123.784521,0.243380695 126.532,1.56357563 C127.645977,2.31066273 128.764951,3.1447394 129.279478,4.11185897 C129.838965,5.16596811 130.093734,6.0921515 129.968848,7.187197 C129.799004,8.85535034 128.854866,10.4416307 127.091484,11.4957398 C126.232272,12.0227944 125.288138,12.3758696 124.304041,12.5959021 C123.359907,12.8159346 122.460732,12.9029245 121.556562,12.9489778 C120.612429,12.9950311 119.838141,13.0359674 119.068847,12.9489778 C118.254594,12.8619882 117.440346,12.5959018 116.536175,12.1558368 C116.191492,11.9818576 115.761885,11.6287826 115.676963,11.2757072 L115.631999,11.3626968 L115.631999,4.33700829 C116.061605,3.10380286 117.690113,3.50293162 117.735072,4.33700829 L117.904914,10.0527362 C117.645153,11.2398882 120.782278,10.7998227 121.421691,10.7537694 C122.235944,10.7077161 123.050196,10.6207263 123.824485,10.4467471 C124.553816,10.2727679 125.243181,10.0527358 125.882594,9.65360713 C126.956609,9.03956293 127.471139,7.8524115 127.556061,6.9722815 C127.60102,6.3991736 127.471139,5.73907589 127.126455,5.17108502 C126.781772,4.51098755 126.227277,3.89694356 125.452988,3.41082526 C123.43484,2.22367322 120.387641,1.52263952 115.537092,2.83771742 L115.547078,2.84283433 Z" id="Vector" fill="#E1111C" fill-rule="nonzero" mask="url(#mask-2)"></path>
                        <path d="M132.352016,12.2412017 C132.089135,12.8595869 131.351049,13.16878 130.7444,12.9059663 C130.137751,12.6379993 129.834422,11.8856305 130.092248,11.2672453 C131.310602,8.34537505 133.221547,5.289522 135.258877,2.94481127 C136.603616,1.35246937 137.862418,0.198150167 139.166713,0.0229410196 C140.511452,-0.152268128 141.643866,0.687705151 143.291929,2.14606359 C144.768108,3.47559178 145.683134,4.93395022 146.638606,6.61904994 C147.594078,8.25777081 148.332169,9.85011234 148.898375,11.1332617 C149.161256,11.7516469 148.898368,12.5040158 148.291719,12.7719827 C147.68507,13.0399496 146.946984,12.7719823 146.684103,12.1535971 C146.163396,10.9116734 145.379815,9.40693657 144.510284,7.86097351 C143.772195,6.61904982 141.077661,2.23882144 139.343656,2.46040948 C137.16983,2.76960211 133.479373,9.54607299 132.352016,12.246355 L132.352016,12.2412017 Z" id="Vector" fill="#E1111C" fill-rule="nonzero" mask="url(#mask-2)"></path>
                    </g>
                    <g id="Icon/Davivienda/Casita" transform="translate(0, -0)" fill-rule="nonzero">
                        <g id="logo-davivienda" transform="translate(0, 0)">
                            <path d="M14.2486303,1.65220017 C14.2213664,1.49770452 14.1668385,1.36138483 14.1668385,1.22506514 C14.1486626,0.879721929 14.3304221,0.652522446 14.6757654,0.59799457 C14.7575572,0.579818611 14.848437,0.570730632 14.9302288,0.570730632 C15.4391556,0.570730632 15.9389945,0.570730632 16.4479213,0.570730632 C16.5388011,0.570730632 16.6296809,0.579818611 16.7205607,0.588906591 C17.0659039,0.643434466 17.2385755,0.843370011 17.2385755,1.1978012 C17.2385755,1.43408867 17.1749597,1.65220017 17.1204318,1.87939965 C17.011376,2.32471064 16.9477602,2.77002163 16.9023203,3.22442059 C16.8932323,3.32438837 16.9295842,3.36982826 17.0022881,3.42435614 C17.6384466,3.89693106 18.2746052,4.36950599 18.8744118,4.87843283 C19.1834031,5.13289625 19.4651305,5.41462361 19.6923299,5.75087884 C19.7741218,5.86902257 19.8468256,5.99625428 19.9013535,6.13257397 C20.119465,6.67785273 19.9740573,7.15951564 19.4833064,7.48668289 C19.1016113,7.74114631 18.6563003,7.83202611 18.2109893,7.88655398 C17.8202062,7.93199388 17.4294231,7.89564196 17.03864,7.86837802 C16.9204963,7.86837802 16.9023203,7.89564196 16.9114083,7.99560973 C16.9659361,8.84079181 17.2476635,9.60418207 17.6657106,10.3312204 C17.8111182,10.5856838 17.9837898,10.8310593 18.1655494,11.0582588 C18.6381243,11.6671534 18.9380277,12.3396638 18.9289397,13.1212301 C18.9198517,14.0845559 18.5018047,14.8661221 17.8020302,15.5022807 C17.0749919,16.1657031 16.2025459,16.5292223 15.2392201,16.6928059 C14.412214,16.8291256 13.5852078,16.7927737 12.7582017,16.6201021 C12.6854979,16.6019261 12.621882,16.6110141 12.5491782,16.6291901 C11.4495327,16.9290934 10.3317112,17.0290612 9.19571383,16.9290934 C8.5959072,16.8745655 7.99610056,16.7927737 7.41446988,16.6110141 C7.35994201,16.5928382 7.31450211,16.6110141 7.26906221,16.6110141 C6.58746377,16.7564218 5.89677734,16.8200377 5.19700293,16.7473338 C3.90650987,16.6110141 2.76142447,16.1657031 1.88897846,15.1660254 C1.3436997,14.5480428 1.05288436,13.8210045 1.08923628,12.9939984 C1.11650022,12.257872 1.41640353,11.6126255 1.8708025,11.0400828 C2.51604903,10.2130767 2.96136002,9.29519078 3.08859173,8.24098518 C3.09767971,8.15010538 3.09767971,8.05013761 3.11585567,7.95925782 C3.12494365,7.86837802 3.08859173,7.85929005 3.00679991,7.85929005 C2.53422499,7.88655398 2.06165007,7.9229059 1.58907514,7.85020207 C1.20738001,7.78658621 0.843860837,7.68661844 0.516693581,7.46850693 C0.0259426982,7.15042766 -0.119464971,6.68694071 0.0986465328,6.14166195 C0.27131814,5.71452693 0.571221457,5.37827169 0.907476692,5.06928039 C1.75265877,4.31497811 2.65236872,3.64246764 3.58843059,3.00630909 C5.0334193,2.02480732 6.53293589,1.13418535 8.15059621,0.470762859 C8.47776346,0.33444317 8.80493072,0.234475397 9.14118595,0.125419645 C9.76825653,-0.0654279204 10.3862391,-0.0290760031 11.0042217,0.170859542 C12.0675153,0.507114777 13.067193,0.99786566 14.0396068,1.53405644 C14.1032227,1.57040836 14.1759265,1.60676027 14.2486303,1.65220017 Z" id="Path" fill="#1D1D1B"></path>
                            <path d="M17.5657428,7.64117854 C16.9386722,7.60482662 16.3025137,7.55938673 15.6663551,7.51394683 C15.2119561,7.48668289 14.7484692,7.45033098 14.2940702,7.42306704 C12.9126974,7.3503632 11.5313245,7.25948341 10.1499517,7.25039543 C9.10483404,7.25039543 8.06880439,7.29583533 7.02368677,7.3503632 C6.18759268,7.3958031 5.3424106,7.441243 4.5063165,7.49577087 C3.88833391,7.53212279 3.26126334,7.57756269 2.64328074,7.62300258 C2.14344188,7.65026652 1.66177898,7.60482662 1.21646799,7.3503632 C0.889300733,7.15951564 0.66210125,6.89596424 0.625749333,6.50518113 C0.598485395,6.18710185 0.716629126,5.91446247 0.898388713,5.66908703 C1.13467618,5.35100775 1.42549151,5.07836837 1.72539483,4.82390495 C3.58843059,3.24259655 5.61504998,1.91575157 7.84160491,0.888809908 C8.35053175,0.652522446 8.87763455,0.46167488 9.42291331,0.33444317 C9.99545601,0.19812348 10.5407348,0.298091252 11.0860135,0.470762859 C12.0311634,0.779754156 12.9217854,1.22506514 13.7851434,1.70672805 C15.3664518,2.59735002 16.8659684,3.60611572 18.2382533,4.79664101 C18.5108926,5.0238405 18.7653561,5.26921594 19.0016435,5.54185532 C19.1834031,5.75996682 19.3197228,5.99625428 19.3651627,6.27798164 C19.4287785,6.65967678 19.2924589,6.96866807 19.0016435,7.20495553 C18.5926844,7.55029875 18.0928456,7.62300258 17.5657428,7.64117854 Z" id="Path" fill="#F39600"></path>
                            <path d="M13.1126329,16.4383425 C13.503416,16.2747589 13.8760232,16.0839113 14.1850145,15.802184 C14.4303899,15.5749845 14.6303255,15.3205211 14.6485014,14.9660899 C14.6575894,14.6480106 14.4940058,14.4389871 14.2304544,14.3026674 C13.948727,14.1572597 13.6397357,14.0663799 13.3398324,13.9482362 C13.076281,13.8482684 12.8036416,13.7483006 12.5310022,13.6483329 C12.4582984,13.6210689 12.4310345,13.602893 12.4401224,13.5029252 C12.649146,12.3305759 12.5855301,11.1854905 12.176571,10.067669 C11.9857235,9.53147824 11.7039961,9.04981534 11.2586851,8.68629616 C10.3862391,7.97743378 9.16844989,8.10466549 8.44141155,8.9771115 C7.96883662,9.5496542 7.7143732,10.2221647 7.56896553,10.940115 C7.39629393,11.7943851 7.38720595,12.6577431 7.55078957,13.5120132 C7.56896553,13.593805 7.55078957,13.6210689 7.46899776,13.6483329 C6.98733486,13.8300925 6.49658397,14.011852 6.01492107,14.1936116 C5.98765713,14.2026996 5.96039319,14.2117876 5.94221723,14.2208756 C5.2969707,14.484427 5.16065101,15.0297057 5.59687402,15.5749845 C5.9149533,15.9748556 6.3511763,16.211143 6.81466325,16.4110786 C6.85101517,16.4292545 6.88736708,16.4474305 6.95098294,16.4656065 C6.81466325,16.5110464 6.68743154,16.5201343 6.56928781,16.5292223 C5.36058656,16.656454 4.21550116,16.4746944 3.19764748,15.784008 C2.34337742,15.2023773 1.78901069,14.4117231 1.61633908,13.3847815 C1.49819535,12.694095 1.61633908,12.0306726 1.99803421,11.4399539 C2.40699328,10.8037953 2.77051245,10.1403729 3.01588789,9.42242249 C3.17038354,8.96802352 3.28852727,8.50453658 3.32487919,8.03196165 C3.32487919,7.91381792 3.37031909,7.85929005 3.4975508,7.85929005 C3.88833391,7.84111409 4.288205,7.81385015 4.67898811,7.79567419 C5.6514019,7.74114631 6.63290366,7.68661844 7.60531745,7.64117854 C8.30509186,7.60482662 9.01395424,7.57756269 9.72281663,7.56847471 C10.8406381,7.55938673 11.9584595,7.6139146 13.076281,7.67753046 C13.6397357,7.7047944 14.2122784,7.73205833 14.7757331,7.76841025 C15.3664518,7.80476217 15.9571704,7.84111409 16.5478891,7.86837802 C16.6569449,7.86837802 16.6842088,7.9229059 16.6932968,8.01378569 C16.7750886,8.92258363 17.0840799,9.75867772 17.4930389,10.5584199 C17.6293586,10.8128833 17.7747663,11.0673467 17.9383499,11.3127222 C18.5654205,12.2396961 18.6017724,13.2211978 18.1564614,14.2208756 C17.6202707,15.4114009 16.6660328,16.1020873 15.4209797,16.4292545 C14.6575894,16.6291901 13.8941991,16.6291901 13.1217209,16.5110464 C13.1035449,16.4928704 13.1035449,16.4746944 13.1217209,16.4565185 L13.1126329,16.4383425 Z" id="Path" fill="#E10517"></path>
                            <path d="M12.1311312,12.3487518 C12.1311312,13.3847815 11.9766355,14.2299635 11.7039961,15.0660576 C11.6767322,15.1387615 11.6494682,15.1660254 11.5676764,15.1478495 C10.5134708,14.9751779 9.46835321,14.9842658 8.41414761,15.1478495 C8.35961973,15.1478495 8.31417984,15.1660254 8.2869159,15.0842336 C7.82342895,13.6483329 7.6689333,12.1942562 8.10515631,10.7220035 C8.25056398,10.2130767 8.48685144,9.74050176 8.88672253,9.36789461 C9.54105704,8.73173606 10.440767,8.74082404 11.1041895,9.36789461 C11.5131486,9.7677657 11.749436,10.2676046 11.9039317,10.8037953 C12.0675153,11.3581621 12.1311312,11.9216168 12.1311312,12.3396638 L12.1311312,12.3487518 Z" id="Path" fill="#FEDE00"></path>
                            <path d="M13.1580728,16.2656709 C13.3034805,15.9475916 13.2580406,15.793096 12.9854012,15.6113364 C12.658234,15.3932249 12.2856268,15.2932571 11.9039317,15.2114653 C11.7948759,15.1842014 11.758524,15.1660254 11.8039639,15.0387937 C12.1220432,14.0936439 12.2765388,13.1121421 12.2220109,12.1124644 C12.176571,11.2491063 11.9948115,10.4130122 11.5131486,9.68597389 C11.2314212,9.25883886 10.858814,8.92258363 10.3407992,8.80443989 C9.76825653,8.67720818 9.27750564,8.84079181 8.8594586,9.23157492 C8.36870771,9.68597389 8.10515631,10.2676046 7.94157268,10.8946751 C7.65075735,12.0124966 7.70528522,13.139406 7.94157268,14.2572275 C8.00518854,14.5298669 8.07789237,14.8025062 8.16877217,15.0660576 C8.20512408,15.1569374 8.18694813,15.1932894 8.08698035,15.2114653 C7.76890108,15.2750812 7.4508218,15.365961 7.16000646,15.5113686 C7.06912667,15.5568085 6.98733486,15.6113364 6.90554304,15.6749523 C6.68743154,15.8657998 6.66925558,16.0202955 6.83283921,16.2656709 C6.7056075,16.238407 6.6147277,16.1747911 6.51475993,16.1111753 C6.19668066,15.9294157 5.92404128,15.7022162 5.72410573,15.3932249 C5.6514019,15.2750812 5.59687402,15.1387615 5.57869806,15.0024418 C5.54234614,14.6661866 5.70592977,14.4117231 6.05127299,14.2844914 C6.54202387,14.1027318 7.03277475,13.9209723 7.52352564,13.7392127 C7.61440543,13.7028607 7.65075735,13.6755968 7.63258139,13.5574531 C7.43264584,12.4396316 7.47808574,11.3399861 7.85069289,10.2585166 C8.03245248,9.72232581 8.30509186,9.22248694 8.75040284,8.84987979 C9.58649694,8.15919336 10.7861102,8.28642507 11.4858846,9.12251917 C11.9311956,9.65870995 12.1583951,10.2766925 12.2947148,10.949203 C12.4764744,11.812561 12.4764744,12.6850071 12.3219787,13.5483651 C12.3038028,13.6665088 12.3401547,13.7028607 12.4401224,13.7392127 C12.9217854,13.9300602 13.4034483,14.1118198 13.8941991,14.2754034 C14.1577505,14.3662832 14.3304221,14.5298669 14.375862,14.8206822 C14.403126,15.0206177 14.3395101,15.2023773 14.2395424,15.365961 C14.0486948,15.7022162 13.7487915,15.9294157 13.4216242,16.1111753 C13.3398324,16.1566152 13.2580406,16.2020551 13.1398969,16.2565829 L13.1580728,16.2656709 Z" id="Path" fill="#0079BF"></path>
                            <path d="M9.97728005,16.8382136 C9.18662585,16.8200377 8.38688367,16.7745978 7.60531745,16.5383103 C7.42355786,16.4837824 7.24179828,16.4201666 7.07821465,16.3111108 C6.75104739,16.1020873 6.75104739,15.8657998 7.07821465,15.6567763 C7.35994201,15.4841047 7.6689333,15.3932249 7.98701258,15.338697 C8.92307445,15.1660254 9.8682243,15.1024096 10.8224621,15.1932894 C11.3859168,15.2478172 11.9493716,15.2932571 12.4855623,15.4750167 C12.649146,15.5295446 12.8218176,15.6022484 12.9581373,15.7022162 C13.2035127,15.8839758 13.2035127,16.0929993 12.9581373,16.2747589 C12.6945859,16.4656065 12.3855946,16.5473983 12.0766033,16.6201021 C11.3950048,16.7836857 10.6952304,16.8200377 9.97728005,16.8382136 L9.97728005,16.8382136 Z" id="Path" fill="#F39600"></path>
                            <path d="M16.6751208,3.1789807 C16.6205929,3.1789807 16.584241,3.1335408 16.5478891,3.10627686 C15.9480825,2.68822981 15.3300999,2.28835872 14.7030293,1.92483955 C14.6121495,1.87031167 14.5576216,1.79760784 14.5394457,1.69764007 C14.5121817,1.53405644 14.4667418,1.37047281 14.4758298,1.1978012 C14.4849178,1.0251296 14.5667096,0.916073846 14.7393812,0.879721929 C14.821173,0.86154597 14.9029648,0.852457991 14.9847567,0.852457991 C15.4573316,0.852457991 15.9299065,0.852457991 16.4024814,0.852457991 C16.4570093,0.852457991 16.5206252,0.852457991 16.575153,0.870633949 C16.8387044,0.925161825 16.9659361,1.08874545 16.9204963,1.36138483 C16.8841443,1.61584825 16.8296165,1.8612237 16.8023525,2.11568712 C16.7569126,2.47011831 16.7205607,2.8245495 16.6842088,3.1789807 L16.6751208,3.1789807 Z" id="Path" fill="#E10517"></path>
                            <path d="M13.1126329,16.4383425 C13.1126329,16.4383425 13.1126329,16.4746944 13.1126329,16.4928704 C13.094457,16.4928704 13.058105,16.5110464 13.0490171,16.4746944 C13.0490171,16.4474305 13.085369,16.4383425 13.1126329,16.4383425 Z" id="Path" fill="#980E18"></path>
                            <path d="M5.14247505,11.8852649 C4.78804386,11.8852649 4.44270065,11.8852649 4.08826945,11.8852649 C3.66113443,11.8852649 3.38849505,11.6035375 3.38849505,11.1673145 C3.38849505,10.7038276 3.38849505,10.2494286 3.38849505,9.78594166 C3.38849505,9.35880663 3.66113443,9.08616725 4.08826945,9.07707927 C4.79713184,9.07707927 5.49690625,9.07707927 6.20576863,9.07707927 C6.62381568,9.07707927 6.88736708,9.35880663 6.89645506,9.77685368 C6.89645506,10.2494286 6.89645506,10.7129156 6.89645506,11.1854905 C6.89645506,11.5944495 6.62381568,11.8761769 6.21485661,11.8761769 C5.86042542,11.8761769 5.50599423,11.8761769 5.15156303,11.8761769 L5.14247505,11.8852649 Z" id="Path" fill="#1D1D1C"></path>
                            <path d="M14.8575249,11.8852649 C14.5030938,11.8852649 14.1577505,11.8852649 13.8033193,11.8852649 C13.3761843,11.8852649 13.1035449,11.6126255 13.1035449,11.1854905 C13.1035449,10.7129156 13.1035449,10.2494286 13.1035449,9.77685368 C13.1035449,9.36789461 13.3761843,9.08616725 13.7851434,9.08616725 C14.5030938,9.08616725 15.2119561,9.08616725 15.9299065,9.08616725 C16.3206896,9.08616725 16.602417,9.37698259 16.611505,9.7677657 C16.611505,10.2494286 16.611505,10.7220035 16.611505,11.2036664 C16.611505,11.5853616 16.3297776,11.8761769 15.9389945,11.8852649 C15.5754753,11.8852649 15.2210441,11.8852649 14.8575249,11.8852649 L14.8575249,11.8852649 Z" id="Path" fill="#1D1D1C"></path>
                            <path d="M11.5404125,13.16667 C11.3677409,13.16667 11.2405092,13.0212623 11.2495972,12.8395027 C11.2495972,12.6668311 11.3950048,12.5395994 11.5585885,12.5395994 C11.7221721,12.5395994 11.8584918,12.6850071 11.8584918,12.8485907 C11.8584918,13.0212623 11.7221721,13.157582 11.5495005,13.157582 L11.5404125,13.16667 Z" id="Path" fill="#1D1D1B"></path>
                            <path d="M5.1242991,11.7671212 C4.7698679,11.7671212 4.42452469,11.7671212 4.07009349,11.7671212 C3.73383826,11.7671212 3.4975508,11.5308337 3.4975508,11.1945785 C3.4975508,10.7129156 3.4975508,10.2403406 3.4975508,9.75867772 C3.4975508,9.42242249 3.73383826,9.195223 4.06100552,9.18613503 C4.77895588,9.18613503 5.48781827,9.18613503 6.20576863,9.18613503 C6.54202387,9.18613503 6.76922335,9.42242249 6.77831133,9.74958974 C6.77831133,10.2312526 6.77831133,10.7129156 6.77831133,11.1945785 C6.77831133,11.5217457 6.54202387,11.7580332 6.21485661,11.7580332 C5.85133744,11.7580332 5.48781827,11.7580332 5.1242991,11.7580332 L5.1242991,11.7671212 Z" id="Path" fill="#0079BF"></path>
                            <path d="M14.848437,9.195223 C15.2028682,9.195223 15.5482114,9.195223 15.9026426,9.195223 C16.2570738,9.195223 16.4933612,9.43151047 16.4933612,9.78594166 C16.4933612,10.2585166 16.4933612,10.7220035 16.4933612,11.1945785 C16.4933612,11.5399217 16.2570738,11.7762091 15.9117305,11.7762091 C15.2028682,11.7762091 14.5030938,11.7762091 13.7942314,11.7762091 C13.4398002,11.7762091 13.2126007,11.5490096 13.2126007,11.1945785 C13.2126007,10.7220035 13.2126007,10.2494286 13.2126007,9.77685368 C13.2126007,9.43151047 13.4398002,9.20431098 13.7851434,9.20431098 C14.1395746,9.20431098 14.4940058,9.20431098 14.848437,9.20431098 L14.848437,9.195223 Z" id="Path" fill="#0079BF"></path>
                            <path d="M4.94253951,9.47695036 L5.37876252,9.47695036 C5.42420241,9.51330228 5.42420241,9.57691814 5.44237837,9.62235803 C5.54234614,9.94952529 5.68775381,10.2494286 5.95130521,10.4766281 C6.06036097,10.5765959 6.19668066,10.6402117 6.33300035,10.6765636 C6.37844024,10.6947396 6.43296812,10.6947396 6.46932003,10.7401795 C6.46932003,10.8219713 6.46932003,10.9037631 6.46932003,10.9855549 C6.46932003,11.2763703 6.28756045,11.4763058 5.99674511,11.4763058 C5.43329039,11.4853938 4.86983567,11.4763058 4.30638096,11.4763058 C4.0246536,11.4763058 3.85198199,11.2945462 3.82471805,11.0037309 C3.82471805,10.9128511 3.82471805,10.8219713 3.82471805,10.7310915 C3.98830168,10.6765636 4.17006127,10.6583877 4.31546894,10.5402439 C4.62446023,10.3130445 4.7698679,9.98587721 4.86983567,9.63144601 C4.88801163,9.57691814 4.88801163,9.51330228 4.93345153,9.46786238 L4.94253951,9.47695036 Z" id="Path" fill="#1D1D1B"></path>
                            <path d="M4.94253951,9.47695036 C4.86983567,9.91317337 4.70625205,10.2948685 4.34273287,10.5675079 C4.19732521,10.6856516 4.0246536,10.7492675 3.82471805,10.7310915 C3.82471805,10.4857161 3.82471805,10.2403406 3.82471805,9.99496518 C3.82471805,9.65870995 4.01556562,9.46786238 4.35182085,9.46786238 C4.54266842,9.46786238 4.74260396,9.46786238 4.93345153,9.46786238 L4.94253951,9.47695036 Z" id="Path" fill="#FEDE00"></path>
                            <path d="M6.47840801,10.7492675 C6.16941672,10.7129156 5.93312926,10.5584199 5.75136967,10.3221324 C5.5605221,10.076757 5.44237837,9.79502964 5.3878505,9.48603834 C5.58778604,9.48603834 5.79680957,9.48603834 5.99674511,9.48603834 C6.28756045,9.48603834 6.47840801,9.67688591 6.47840801,9.96770125 C6.47840801,10.2312526 6.47840801,10.494804 6.47840801,10.7583554 L6.47840801,10.7492675 Z" id="Path" fill="#FEDE00"></path>
                            <path d="M16.1934579,10.7492675 C16.1934579,10.8219713 16.1934579,10.8946751 16.1934579,10.967379 C16.1934579,11.2854582 16.0207863,11.4763058 15.702707,11.4853938 C15.1483403,11.4944818 14.5939735,11.4853938 14.0396068,11.4853938 C13.7306155,11.4853938 13.5488559,11.2854582 13.5488559,10.967379 C13.5488559,10.8946751 13.5488559,10.8219713 13.5488559,10.7492675 C13.5761199,10.7220035 13.6124718,10.7129156 13.6488237,10.7038276 C14.0941347,10.6220358 14.3304221,10.3039565 14.5030938,9.92226135 C14.5667096,9.77685368 14.5757976,9.61327005 14.6666774,9.47695036 C14.812085,9.47695036 14.9574927,9.47695036 15.1029004,9.47695036 C15.1483403,9.52239026 15.1483403,9.58600612 15.1665162,9.64053399 C15.293748,10.0040532 15.4482436,10.3493964 15.7844988,10.5675079 C15.8662906,10.6220358 15.9662584,10.6583877 16.0571382,10.6856516 C16.1025781,10.7038276 16.157106,10.7038276 16.1934579,10.7492675 Z" id="Path" fill="#1D1D1B"></path>
                            <path d="M14.6666774,9.48603834 C14.6121495,9.83138156 14.4758298,10.1494608 14.2486303,10.4130122 C14.0668707,10.6220358 13.8396713,10.7401795 13.5579439,10.7492675 C13.5579439,10.4857161 13.5579439,10.2221647 13.5579439,9.95861327 C13.5579439,9.67688591 13.7578794,9.48603834 14.0396068,9.47695036 C14.2486303,9.47695036 14.4576539,9.47695036 14.6666774,9.47695036 L14.6666774,9.48603834 Z" id="Path" fill="#FEDE00"></path>
                            <path d="M16.1934579,10.7492675 C15.8299387,10.7038276 15.5754753,10.503892 15.3937157,10.2039887 C15.257396,9.97678923 15.1483403,9.74050176 15.1029004,9.47695036 C15.3028359,9.47695036 15.5118595,9.47695036 15.711795,9.47695036 C16.0026103,9.47695036 16.1934579,9.67688591 16.1934579,9.96770125 C16.1934579,10.2221647 16.1934579,10.4857161 16.1934579,10.7401795 L16.1934579,10.7492675 Z" id="Path" fill="#FEDE00"></path>
                        </g>
                    </g>
                </g>
            </g>
        </g>
    </g>
</svg>