<?xml version="1.0" encoding="UTF-8"?>
<svg width="198.793607px" height="22.6221084px" viewBox="0 0 198.793607 22.6221084" version="1.1" xmlns="http://www.w3.org/2000/svg" xmlns:xlink="http://www.w3.org/1999/xlink">
    <title>Logo</title>
    <defs>
        <rect id="path-1" x="0" y="0" width="166" height="27"></rect>
    </defs>
    <g id="Home" stroke="none" stroke-width="1" fill="none" fill-rule="evenodd">
        <g id="Main" transform="translate(-82.6667, -93.3333)">
            <g id="Header-" transform="translate(0, 72)">
                <g id="Logo" transform="translate(80, 16)">
                    <g id="Modo_de_aislamiento-Copy-2" transform="translate(36, 10.4062)">
                        <mask id="mask-2" fill="white">
                            <use xlink:href="#path-1"></use>
                        </mask>
                        <g id="Clip" fill-rule="nonzero"></g>
                        <path d="M85.1759855,2.27373675e-13 C85.9126772,2.27373675e-13 86.5522876,0.601919716 86.5522876,1.29520215 L86.5522876,12.054516 C86.5522876,12.7477984 85.9126772,13.349718 85.1759855,13.349718 C84.4392938,13.349718 83.7996834,12.7477984 83.7996834,12.054516 L83.7996834,1.29520215 C83.7996834,0.601919716 84.4392938,2.27373675e-13 85.1759855,2.27373675e-13 Z" id="Vector" fill="#FFFFFF" fill-rule="nonzero" mask="url(#mask-2)"></path>
                        <path d="M103.48992,0.430158652 C104.223048,0.574371229 104.757263,1.00146226 104.615184,1.71697851 C104.467422,2.43249476 103.78545,2.95387887 103.006856,2.81521293 C100.222105,2.33820207 97.7840257,2.1496164 95.829017,2.52678778 C94.0729191,2.85958606 92.7544197,3.5751025 91.970143,5.006135 C91.5780046,5.72165125 91.288167,6.29295519 91.2370185,6.86425887 C91.1858701,7.39118945 91.0892608,8.1011587 91.4813991,8.67246238 L91.7257711,8.48387714 C91.9701471,8.81667541 92.0667571,9.34360524 92.4588955,9.67640351 C92.8964992,10.0092018 93.3852527,10.2976276 93.9251533,10.536133 C96.9031315,11.9172458 101.443983,12.3443372 104.859565,11.0575172 C105.592693,10.7690921 106.371286,11.1518096 106.615662,11.8229528 C106.911186,12.538469 106.666811,13.0598529 105.933683,13.2983584 C101.830438,14.8236837 96.5564589,14.3965922 92.9931146,12.7270543 C92.2599864,12.394256 91.5780126,12.0115382 90.9926466,11.5345274 C90.3561322,11.0575165 89.86738,10.5361326 89.4297763,9.96482893 C88.6000343,8.82222158 88.304508,7.72398756 88.4068049,6.58138021 C88.5034187,5.53306568 88.8955568,4.53467065 89.4809227,3.48635612 C90.8960307,1.43964675 92.7544266,0.674210696 95.289118,0.19719984 C97.732879,-0.135598439 100.415328,-0.0413055709 103.48992,0.435705285 L103.48992,0.430158652 Z" id="Vector" fill="#FFFFFF" fill-rule="nonzero" mask="url(#mask-2)"></path>
                        <path d="M97.4857219,6.22986841 L89.3048917,6.22986841 L89.3048917,8.00983082 L97.4857219,8.00983082 C98.0527646,8.00983082 98.476672,7.62046436 98.476672,7.09962303 C98.5262194,6.66474578 98.0527646,6.22986841 97.4857219,6.22986841 Z" id="Vector" fill="#FFFFFF" fill-rule="nonzero" mask="url(#mask-2)"></path>
                        <path d="M110.29384,4.00237663 L110.29384,12.5400665 C110.29384,13.2684804 109.664646,13.9009018 108.939951,13.9009018 C108.215256,13.9009018 107.687186,13.2684804 107.687186,12.5400665 L107.687186,4.8776023 C107.299558,1.62514907 110.535402,-2.06209308 114.248762,1.38234505 C114.299322,1.43316463 114.34427,1.47833758 114.39483,1.52915716 C114.428537,1.56303688 114.445388,1.5950343 114.445388,1.62514961 C116.422851,4.2451812 117.872242,7.10801842 119.703642,9.86921551 L119.703642,9.92003518 C119.799144,10.1120203 119.894649,10.2588317 119.99577,10.4564634 C121.057532,12.0544568 122.602423,12.0544566 122.652983,10.0216734 C122.703543,8.27686791 122.703544,3.47159432 122.557481,1.43316458 C122.506921,0.704750623 123.186667,0.0723291 123.911362,0.0723291 C124.636058,0.0723291 125.068635,0.704750623 125.068635,1.43316458 L125.068635,8.56484552 C125.214697,10.7952604 124.534945,12.6417051 124.006872,13.1724873 C123.282177,13.9968939 122.31591,14.2396992 121.304708,14.2396992 C121.113703,14.2396992 120.917082,14.2396992 120.771019,14.1888796 C118.698054,13.7540898 114.642009,6.47559611 113.917314,5.45920454 C113.625189,5.06958777 113.389238,4.68561764 113.097113,4.29600086 C112.906108,4.00237663 112.664547,3.66357956 112.372422,3.32478235 C111.215157,2.25757118 110.299455,3.13279718 110.299455,4.00237663 L110.29384,4.00237663 Z M119.703642,9.87486118 C119.799144,10.0668463 119.849703,10.2644784 119.894645,10.5072831 L119.703642,9.87486118 Z" id="Vector" fill="#FFFFFF" fill-rule="nonzero" mask="url(#mask-2)"></path>
                        <path d="M64.3919309,0.83115738 C64.099871,0.153802002 63.2798563,-0.184875612 62.6058717,0.103000407 C61.9318872,0.396521049 61.5948944,1.22063674 61.8813378,1.89799212 C63.2349235,5.09849619 65.3579753,8.44576086 67.6214401,11.0140667 C69.1154391,12.7582567 70.5139541,14.0226534 71.9630207,14.2145708 C73.4570198,14.4064881 74.7151262,13.4864132 76.5461175,11.8889836 C78.1861465,10.4326696 79.2027412,8.83523968 80.2586503,6.98944636 C81.3201759,5.19445464 82.1401911,3.4502648 82.7692433,2.04475244 C83.0613033,1.36739706 82.7692451,0.543281378 82.0952605,0.249760736 C81.421276,-0.043759905 80.601257,0.249760652 80.3091971,0.92711603 C79.7306937,2.28747141 78.8601276,3.93570274 77.8940831,5.62909112 C77.0740686,6.98944649 74.0804534,11.787381 72.1539809,11.544662 C69.7388697,11.2059843 65.6388011,3.73814068 64.3863132,0.825512757 L64.3919309,0.83115738 Z" id="Vector" fill="#FFFFFF" fill-rule="nonzero" mask="url(#mask-2)"></path>
                        <path d="M59.4850155,2.27373675e-13 C60.2217083,2.27373675e-13 60.8613154,0.601919716 60.8613154,1.29520215 L60.8613154,12.054516 C60.8613154,12.7477984 60.2217083,13.349718 59.4850155,13.349718 C58.7483226,13.349718 58.1087112,12.7477984 58.1087112,12.054516 L58.1087112,1.29520215 C58.1087112,0.601919716 58.7483226,2.27373675e-13 59.4850155,2.27373675e-13 Z" id="Vector" fill="#FFFFFF" fill-rule="nonzero" mask="url(#mask-2)"></path>
                        <path d="M1.98906957,3.10832609 C1.28701601,3.29889619 0.541424184,2.96259602 0.350944532,2.23955068 C0.165907151,1.51650534 0.541424212,0.748620004 1.24347778,0.558049906 C7.32249995,-0.64702575 10.9688251,0.266589838 13.9620768,1.71268052 C15.1757044,2.53101095 16.3947742,3.4446264 16.9553286,4.50397193 C17.5648635,5.65860247 17.8424189,6.67310808 17.7009198,7.87257874 C17.5158824,9.69980965 16.4872932,11.4373611 14.5661698,12.5919917 C13.6300983,13.1693069 12.6015083,13.5560519 11.5293799,13.7970671 C10.5007898,14.0380822 9.52117905,14.1333675 8.53612715,14.1838126 C7.50753702,14.2342576 6.66398449,14.2790976 5.82587402,14.1838126 C4.93878306,14.0885275 4.05169223,13.7970667 3.06664033,13.3150365 C2.6911233,13.1244664 2.22308743,12.7377216 2.13056874,12.3509764 L2.0815883,12.4462615 L2.0815883,4.74498668 C2.54962403,3.39418096 4.32380584,3.83137123 4.37278633,4.74498668 L4.55782379,11.0057759 C4.27482546,12.3061365 7.69257468,11.8241057 8.38918597,11.7736607 C9.27627694,11.7232157 10.1633682,11.6279304 11.0069209,11.4373603 C11.8014932,11.2467902 12.5470854,11.0057755 13.249139,10.5685853 C14.4192284,9.89598496 14.9797819,8.59562395 15.0723006,7.63156345 C15.1212811,7.00380313 14.9797826,6.28075752 14.6042656,5.6586022 C14.2287485,4.93555686 13.6246557,4.26295673 12.7811029,3.73048147 C10.5388854,2.43012086 7.26263491,1.66223554 1.97818503,3.10272122 L1.98906957,3.10832609 Z" id="Vector" fill="#FFFFFF" fill-rule="nonzero" mask="url(#mask-2)"></path>
                        <path d="M37.783424,0.83115738 C37.491364,0.153802002 36.6713493,-0.184875612 35.9973648,0.103000407 C35.3233802,0.396521049 34.9863875,1.22063674 35.2728309,1.89799212 C36.6264165,5.09849619 38.7494683,8.44576086 41.0129331,11.0140667 C42.5069322,12.7582567 43.9054471,14.0226534 45.3545138,14.2145708 C46.8485128,14.4064881 48.1066193,13.4864132 49.9376106,11.8889836 C51.5776396,10.4326696 52.5942343,8.83523968 53.6501434,6.98944636 C54.711669,5.19445464 55.5316841,3.4502648 56.1607364,2.04475244 C56.4527963,1.36739706 56.1607338,0.543281378 55.4867493,0.249760736 C54.8127647,-0.043759905 53.9927501,0.249760652 53.7006901,0.92711603 C53.1221868,2.28747141 52.2516249,3.93570274 51.2855804,5.62909112 C50.4655659,6.98944649 47.4719507,11.787381 45.5454783,11.544662 C43.130367,11.2059843 39.0302941,3.73814068 37.7778062,0.825512757 L37.783424,0.83115738 Z" id="Vector" fill="#FFFFFF" fill-rule="nonzero" mask="url(#mask-2)"></path>
                        <path d="M36.2274028,13.4085408 C36.5194627,14.0858962 37.3394774,14.4245743 38.0134619,14.1366983 C38.6874465,13.8431777 39.0244392,13.0190618 38.7379958,12.3417064 C37.3844102,9.14120237 35.2613552,5.79393864 32.9978904,3.22563283 C31.5038914,1.48144285 30.1053738,0.217046061 28.6563071,0.0251287091 C27.162308,-0.166788642 25.9042037,0.753285732 24.0732125,2.35071539 C22.4331834,3.80702935 21.4165898,5.40445901 20.3606807,7.25025233 C19.2991551,9.04524405 18.4791422,10.7894336 17.8500899,12.194946 C17.55803,12.8723014 17.8500903,13.6964172 18.5240749,13.9899378 C19.1980594,14.2834585 20.0180719,13.9899374 20.3101318,13.3125821 C20.8886352,11.9522267 21.7592002,10.303996 22.7252447,8.61060758 C23.5452592,7.2502522 26.5388723,2.45231877 28.4653447,2.69503777 C30.880456,3.03371546 34.9805283,10.4564006 36.2330163,13.4141855 L36.2274028,13.4085408 Z" id="Vector" fill="#FFFFFF" fill-rule="nonzero" mask="url(#mask-2)"></path>
                        <path d="M128.609469,3.11393122 C127.907339,3.30450132 127.161669,2.96820102 126.971168,2.24515568 C126.786111,1.52211034 127.156228,0.754225001 127.858358,0.558049906 C133.938042,-0.64702575 137.58476,0.266589838 140.578337,1.71268052 C141.792097,2.53101095 143.011299,3.4446264 143.571915,4.50397193 C144.181516,5.65860247 144.459105,6.67310808 144.323033,7.87257874 C144.137975,9.69980965 143.109268,11.4373601 141.187936,12.5919906 C140.251763,13.1693059 139.22306,13.5560509 138.150815,13.797066 C137.122113,14.0380811 136.142397,14.1333665 135.157238,14.1838115 C134.128536,14.2342565 133.284893,14.2790965 132.446692,14.1838115 C131.559504,14.0885264 130.672321,13.7970657 129.687162,13.3150354 C129.311604,13.1244653 128.843517,12.7377205 128.750988,12.3509753 L128.701996,12.4462604 L128.701996,4.75059181 C129.170083,3.39978609 130.944461,3.83697636 130.993447,4.75059181 L131.178503,11.01138 C130.895474,12.3117406 134.313599,11.8297098 135.010286,11.7792648 C135.897474,11.7288197 136.78466,11.6335345 137.628304,11.4429644 C138.422963,11.2523943 139.174076,11.0113796 139.870763,10.5741894 C141.040979,9.90158902 141.601598,8.60122908 141.694127,7.63716858 C141.743113,7.00940826 141.601598,6.28636265 141.22604,5.66420733 C140.850482,4.94116199 140.24632,4.26856187 139.402676,3.73608661 C137.203757,2.43572599 133.883613,1.66784067 128.598589,3.10832636 L128.609469,3.11393122 Z" id="Vector" fill="#FFFFFF" fill-rule="nonzero" mask="url(#mask-2)"></path>
                        <path d="M146.969359,13.4085408 C146.677377,14.0858962 145.857585,14.4245743 145.18378,14.1366983 C144.509975,13.8431777 144.173068,13.0190618 144.459435,12.3417064 C145.81266,9.14120237 147.935147,5.79393864 150.198009,3.22563283 C151.69161,1.48144285 153.089762,0.217046061 154.538443,0.0251287091 C156.032044,-0.166788642 157.289816,0.753285732 159.12032,2.35071539 C160.759912,3.80702935 161.776231,5.40445901 162.837474,7.25025233 C163.898717,9.04524405 164.718514,10.7894336 165.347398,12.194946 C165.639381,12.8723014 165.347392,13.6964172 164.673586,13.9899378 C163.999781,14.2834585 163.179989,13.9899374 162.888007,13.3125821 C162.309658,11.9522267 161.439334,10.303996 160.473547,8.61060758 C159.653751,7.2502522 156.660932,2.45231877 154.734973,2.69503777 C152.320505,3.03371546 148.221514,10.4564006 146.969359,13.4141855 L146.969359,13.4085408 Z" id="Vector" fill="#FFFFFF" fill-rule="nonzero" mask="url(#mask-2)"></path>
                    </g>
                    <g id="Icon/Davivienda/Casita-Copy" transform="translate(2.6667, 5.3333)" fill-rule="nonzero">
                        <g id="logo-davivienda" transform="translate(0, -0)">
                            <path d="M18.9981738,2.20293356 C18.9618219,1.99693936 18.889118,1.81517978 18.889118,1.63342019 C18.8648834,1.17296257 19.1072295,0.870029928 19.5676871,0.797326093 C19.6767429,0.773091482 19.797916,0.760974176 19.9069717,0.760974176 C20.5855408,0.760974176 21.2519926,0.760974176 21.9305618,0.760974176 C22.0517348,0.760974176 22.1729079,0.773091482 22.2940809,0.785208787 C22.7545386,0.857912622 22.9847674,1.12449335 22.9847674,1.59706827 C22.9847674,1.91211822 22.8999462,2.20293356 22.8272424,2.50586621 C22.6818347,3.09961419 22.5970136,3.69336217 22.5364271,4.29922746 C22.5243098,4.43251782 22.572779,4.49310435 22.6697174,4.56580818 C23.5179288,5.19590808 24.3661402,5.82600798 25.1658824,6.50457711 C25.5778708,6.84386167 25.9535073,7.21949814 26.2564399,7.66783846 C26.3654957,7.82536343 26.4624341,7.99500571 26.535138,8.1767653 C26.8259533,8.90380365 26.6320764,9.54602085 25.9777419,9.98224386 C25.468815,10.3215284 24.8750671,10.4427015 24.2813191,10.5154053 C23.7602749,10.5759918 23.2392308,10.5275226 22.7181866,10.4911707 C22.5606617,10.4911707 22.5364271,10.5275226 22.5485444,10.660813 C22.6212482,11.7877224 22.9968847,12.8055761 23.5542807,13.7749606 C23.7481576,14.1142451 23.9783864,14.4414124 24.2207326,14.744345 C24.8508325,15.5562045 25.2507035,16.4528851 25.2385862,17.4949734 C25.2264689,18.7794078 24.6690729,19.8214961 23.7360403,20.6697075 C22.7666559,21.5542709 21.6033945,22.0389631 20.3189601,22.2570746 C19.2162853,22.4388342 18.1136105,22.390365 17.0109356,22.1601361 C16.9139972,22.1359015 16.829176,22.1480188 16.7322376,22.1722534 C15.2660436,22.5721245 13.775615,22.7054149 12.2609518,22.5721245 C11.4612096,22.4994207 10.6614674,22.390365 9.88595985,22.1480188 C9.81325601,22.1237842 9.75266948,22.1480188 9.69208295,22.1480188 C8.78328502,22.3418957 7.86236978,22.4267169 6.92933724,22.3297784 C5.20867982,22.1480188 3.6818993,21.5542709 2.51863794,20.2213672 C1.7915996,19.3973904 1.40384581,18.428006 1.45231504,17.3253311 C1.48866696,16.3438294 1.88853805,15.4835007 2.49440333,14.7201104 C3.35473204,13.6174356 3.94848002,12.3935877 4.1181223,10.9879802 C4.13023961,10.8668072 4.13023961,10.7335168 4.15447422,10.6123438 C4.16659153,10.4911707 4.1181223,10.4790534 4.00906655,10.4790534 C3.37896665,10.5154053 2.74886675,10.5638745 2.11876685,10.4669361 C1.60984001,10.3821149 1.12514778,10.2488246 0.688924775,9.95800925 C0.0345902643,9.53390354 -0.159286628,8.91592095 0.13152871,8.18888261 C0.36175752,7.61936923 0.76162861,7.17102892 1.20996892,6.75904053 C2.33687836,5.75330415 3.53649163,4.85662352 4.78457412,4.00841212 C6.71122574,2.6997431 8.71058119,1.51224713 10.8674616,0.627683813 C11.3036846,0.445924226 11.7399076,0.312633863 12.1882479,0.167226194 C13.024342,-0.0872372271 13.8483188,-0.0387680041 14.6722956,0.227812723 C16.0900204,0.676153036 17.422924,1.33048755 18.7194757,2.04540859 C18.8042969,2.09387781 18.9012353,2.14234703 18.9981738,2.20293356 Z" id="Path" fill="#1D1D1B"></path>
                            <path d="M23.4209904,10.1882381 C22.5848963,10.1397688 21.7366849,10.0791823 20.8884735,10.0185958 C20.2826082,9.98224386 19.6646256,9.93377463 19.0587603,9.89742272 C17.2169298,9.80048427 15.3750994,9.67931121 13.5332689,9.66719391 C12.1397787,9.66719391 10.7584059,9.72778044 9.3649157,9.80048427 C8.25012357,9.8610708 7.12321413,9.92165733 6.008422,9.99436116 C5.18444521,10.0428304 4.34835111,10.1034169 3.52437432,10.1640034 C2.85792251,10.2003554 2.2157053,10.1397688 1.62195732,9.80048427 C1.18573431,9.54602085 0.882801667,9.19461898 0.834332444,8.67357484 C0.797980527,8.24946913 0.955505502,7.88594996 1.19785162,7.55878271 C1.51290157,7.134677 1.90065535,6.77115783 2.30052644,6.43187327 C4.78457412,4.32346207 7.48673331,2.55433543 10.4554732,1.18507988 C11.1340423,0.870029928 11.8368461,0.615566507 12.5638844,0.445924226 C13.3272747,0.26416464 14.054313,0.397455003 14.7813514,0.627683813 C16.0415512,1.03967221 17.2290471,1.63342019 18.3801912,2.2756374 C20.4886024,3.46313336 22.4879578,4.8081543 24.317671,6.39552135 C24.6811902,6.698454 25.0204747,7.02562125 25.3355247,7.38914043 C25.5778708,7.67995576 25.7596304,7.99500571 25.8202169,8.37064219 C25.9050381,8.87956903 25.7232785,9.29155743 25.3355247,9.60660738 C24.7902459,10.067065 24.1237941,10.1640034 23.4209904,10.1882381 Z" id="Path" fill="#F39600"></path>
                            <path d="M17.4835106,21.91779 C18.0045547,21.6996785 18.5013642,21.4452151 18.9133526,21.0695786 C19.2405199,20.766646 19.5071006,20.4273614 19.5313352,19.9547865 C19.5434525,19.5306808 19.325341,19.2519828 18.9739392,19.0702232 C18.5983027,18.8763463 18.1863143,18.7551732 17.7864432,18.5976483 C17.4350413,18.4643579 17.0715222,18.3310675 16.708003,18.1977772 C16.6110645,18.1614252 16.5747126,18.1371906 16.5868299,18.0039003 C16.865528,16.4407678 16.7807068,14.9139873 16.2354281,13.4235587 C15.9809646,12.7086377 15.6053282,12.0664204 15.0115802,11.5817282 C13.8483188,10.6365784 12.2245999,10.8062206 11.2552154,11.969482 C10.6251155,12.7328723 10.2858309,13.6295529 10.091954,14.58682 C9.86172523,15.7258468 9.84960793,16.8769908 10.0677194,18.0160176 C10.091954,18.1250733 10.0677194,18.1614252 9.95866368,18.1977772 C9.31644647,18.4401233 8.66211196,18.6824694 8.01989476,18.9248155 C7.98354284,18.9369328 7.94719092,18.9490501 7.92295631,18.9611674 C7.0626276,19.3125693 6.88086802,20.0396076 7.46249869,20.766646 C7.8866044,21.2998074 8.46823507,21.6148574 9.08621767,21.8814381 C9.13468689,21.9056727 9.18315611,21.9299073 9.26797725,21.9541419 C9.08621767,22.0147285 8.91657538,22.0268458 8.75905041,22.0389631 C7.14744874,22.2086054 5.62066822,21.9662593 4.26352997,21.045344 C3.12450323,20.2698364 2.38534758,19.2156308 2.15511877,17.8463753 C1.9975938,16.9254601 2.15511877,16.0408967 2.66404561,15.2532719 C3.20932437,14.4050605 3.6940166,13.5204971 4.02118386,12.56323 C4.22717806,11.9573647 4.38470303,11.3393821 4.43317225,10.7092822 C4.43317225,10.5517572 4.49375878,10.4790534 4.66340106,10.4790534 C5.18444521,10.4548188 5.71760666,10.4184669 6.23865081,10.3942323 C7.53520253,10.3215284 8.84387155,10.2488246 10.1404233,10.1882381 C11.0734558,10.1397688 12.0186057,10.1034169 12.9637555,10.0912996 C14.4541841,10.0791823 15.9446127,10.1518861 17.4350413,10.2367073 C18.1863143,10.2730592 18.9497046,10.3094111 19.7009775,10.3578803 C20.4886024,10.4063496 21.2762273,10.4548188 22.0638521,10.4911707 C22.2092598,10.4911707 22.2456117,10.5638745 22.257729,10.6850476 C22.3667848,11.8967782 22.7787732,13.0115703 23.3240519,14.0778932 C23.5058115,14.4171778 23.6996884,14.7564623 23.9177999,15.0836296 C24.753894,16.3195948 24.8023632,17.6282638 24.2086153,18.9611674 C23.4936942,20.5485345 22.2213771,21.4694497 20.5613062,21.9056727 C19.5434525,22.1722534 18.5255989,22.1722534 17.4956279,22.0147285 C17.4713932,21.9904939 17.4713932,21.9662593 17.4956279,21.9420246 L17.4835106,21.91779 Z" id="Path" fill="#E10517"></path>
                            <path d="M16.1748415,16.4650024 C16.1748415,17.8463753 15.9688473,18.9732847 15.6053282,20.0880769 C15.5689762,20.1850153 15.5326243,20.2213672 15.4235686,20.1971326 C14.0179611,19.9669038 12.6244709,19.9790211 11.2188635,20.1971326 C11.1461596,20.1971326 11.0855731,20.2213672 11.0492212,20.1123115 C10.4312386,18.1977772 10.2252444,16.2590082 10.8068751,14.2960047 C11.000752,13.6174356 11.3158019,12.9873357 11.8489634,12.4905261 C12.7214094,11.6423147 13.9210227,11.6544321 14.805586,12.4905261 C15.3508647,13.0236876 15.6659147,13.6901394 15.8719089,14.4050605 C16.0900204,15.1442161 16.1748415,15.8954891 16.1748415,16.4528851 L16.1748415,16.4650024 Z" id="Path" fill="#FEDE00"></path>
                            <path d="M17.5440971,21.6875612 C17.737974,21.2634555 17.6773874,21.0574613 17.3138683,20.8151152 C16.8776453,20.5242999 16.3808357,20.3910095 15.8719089,20.2819538 C15.7265012,20.2456018 15.678032,20.2213672 15.7386185,20.0517249 C16.1627242,18.7915251 16.3687184,17.4828561 16.2960146,16.1499525 C16.2354281,14.9988084 15.9930819,13.8840163 15.3508647,12.9146319 C14.9752283,12.3451185 14.4784187,11.8967782 13.7877323,11.7392532 C13.024342,11.5696109 12.3700075,11.7877224 11.8126115,12.3087666 C11.1582769,12.9146319 10.8068751,13.6901394 10.5887636,14.5262335 C10.2010098,16.0166621 10.2737136,17.519208 10.5887636,19.0096366 C10.6735847,19.3731558 10.7705232,19.736675 10.8916962,20.0880769 C10.9401654,20.2092499 10.9159308,20.2577191 10.7826405,20.2819538 C10.3585348,20.3667749 9.93442907,20.4879479 9.54667528,20.6818248 C9.42550223,20.7424114 9.31644647,20.8151152 9.20739072,20.8999363 C8.91657538,21.1543998 8.89234077,21.360394 9.11045228,21.6875612 C8.94081,21.6512093 8.81963694,21.5663882 8.68634658,21.481567 C8.26224087,21.2392209 7.8987217,20.9362883 7.63214097,20.5242999 C7.53520253,20.3667749 7.46249869,20.1850153 7.43826408,20.0032557 C7.38979486,19.5549154 7.60790636,19.2156308 8.06836398,19.0459886 C8.72269849,18.8036424 9.377033,18.5612963 10.0313675,18.3189502 C10.1525406,18.270481 10.2010098,18.2341291 10.1767752,18.0766041 C9.91019446,16.5861755 9.97078099,15.1199815 10.4675905,13.6780221 C10.7099366,12.9631011 11.0734558,12.2966493 11.6672038,11.7998397 C12.7819959,10.8789245 14.3814803,11.0485668 15.3145128,12.1633589 C15.9082608,12.8782799 16.2111935,13.7022567 16.392953,14.5989374 C16.6352992,15.7500814 16.6352992,16.9133428 16.429305,18.0644868 C16.4050703,18.2220118 16.4535396,18.270481 16.5868299,18.3189502 C17.2290471,18.5734136 17.8712643,18.8157598 18.5255989,19.0338713 C18.8770007,19.1550443 19.1072295,19.3731558 19.1678161,19.7609096 C19.204168,20.0274903 19.1193468,20.2698364 18.9860565,20.4879479 C18.731593,20.9362883 18.331722,21.2392209 17.895499,21.481567 C17.7864432,21.5421536 17.6773874,21.6027401 17.5198625,21.6754439 L17.5440971,21.6875612 Z" id="Path" fill="#0079BF"></path>
                            <path d="M13.3030401,22.4509515 C12.2488345,22.4267169 11.1825116,22.3661303 10.1404233,22.0510804 C9.89807715,21.9783766 9.65573104,21.8935554 9.43761953,21.7481477 C9.00139652,21.4694497 9.00139652,21.1543998 9.43761953,20.8757017 C9.81325601,20.6454729 10.2252444,20.5242999 10.6493501,20.451596 C11.8974326,20.2213672 13.1576324,20.1365461 14.4299495,20.2577191 C15.1812225,20.330423 15.9324954,20.3910095 16.6474165,20.6333556 C16.865528,20.7060595 17.0957568,20.8029979 17.2775164,20.9362883 C17.6046836,21.1786344 17.6046836,21.4573324 17.2775164,21.6996785 C16.9261145,21.9541419 16.5141261,22.0631977 16.1021377,22.1601361 C15.1933398,22.3782476 14.2603072,22.4267169 13.3030401,22.4509515 L13.3030401,22.4509515 Z" id="Path" fill="#F39600"></path>
                            <path d="M22.2334944,4.23864093 C22.1607906,4.23864093 22.1123214,4.1780544 22.0638521,4.14170248 C21.26411,3.58430642 20.4401332,3.05114496 19.6040391,2.56645273 C19.482866,2.4937489 19.4101622,2.39681045 19.3859276,2.26352009 C19.3495756,2.04540859 19.2889891,1.82729708 19.3011064,1.59706827 C19.3132237,1.36683946 19.4222795,1.22143179 19.6525083,1.17296257 C19.761564,1.14872796 19.8706198,1.13661065 19.9796755,1.13661065 C20.6097754,1.13661065 21.2398753,1.13661065 21.8699752,1.13661065 C21.9426791,1.13661065 22.0275002,1.13661065 22.100204,1.16084527 C22.4516059,1.2335491 22.6212482,1.4516606 22.5606617,1.81517978 C22.5121924,2.15446434 22.4394886,2.48163159 22.4031367,2.82091615 C22.3425502,3.29349108 22.2940809,3.766066 22.2456117,4.23864093 L22.2334944,4.23864093 Z" id="Path" fill="#E10517"></path>
                            <path d="M17.4835106,21.91779 C17.4835106,21.91779 17.4835106,21.9662593 17.4835106,21.9904939 C17.4592759,21.9904939 17.4108067,22.0147285 17.3986894,21.9662593 C17.3986894,21.9299073 17.4471586,21.91779 17.4835106,21.91779 Z" id="Path" fill="#980E18"></path>
                            <path d="M6.85663341,15.8470198 C6.38405848,15.8470198 5.92360086,15.8470198 5.45102594,15.8470198 C4.88151257,15.8470198 4.51799339,15.4713834 4.51799339,14.8897527 C4.51799339,14.2717701 4.51799339,13.6659048 4.51799339,13.0479222 C4.51799339,12.4784088 4.88151257,12.1148897 5.45102594,12.1027724 C6.39617579,12.1027724 7.32920833,12.1027724 8.27435818,12.1027724 C8.83175424,12.1027724 9.18315611,12.4784088 9.19527342,13.0358049 C9.19527342,13.6659048 9.19527342,14.2838874 9.19527342,14.9139873 C9.19527342,15.4592661 8.83175424,15.8349025 8.28647549,15.8349025 C7.81390056,15.8349025 7.34132564,15.8349025 6.86875071,15.8349025 L6.85663341,15.8470198 Z" id="Path" fill="#1D1D1C"></path>
                            <path d="M19.8100333,15.8470198 C19.3374583,15.8470198 18.8770007,15.8470198 18.4044258,15.8470198 C17.8349124,15.8470198 17.4713932,15.4835007 17.4713932,14.9139873 C17.4713932,14.2838874 17.4713932,13.6659048 17.4713932,13.0358049 C17.4713932,12.4905261 17.8349124,12.1148897 18.3801912,12.1148897 C19.3374583,12.1148897 20.2826082,12.1148897 21.2398753,12.1148897 C21.7609195,12.1148897 22.136556,12.5026435 22.1486733,13.0236876 C22.1486733,13.6659048 22.1486733,14.2960047 22.1486733,14.9382219 C22.1486733,15.4471488 21.7730368,15.8349025 21.2519926,15.8470198 C20.7673004,15.8470198 20.2947255,15.8470198 19.8100333,15.8470198 L19.8100333,15.8470198 Z" id="Path" fill="#1D1D1C"></path>
                            <path d="M15.3872167,17.55556 C15.1569878,17.55556 14.9873456,17.3616831 14.9994629,17.1193369 C14.9994629,16.8891081 15.1933398,16.7194659 15.4114513,16.7194659 C15.6295628,16.7194659 15.8113224,16.9133428 15.8113224,17.1314543 C15.8113224,17.3616831 15.6295628,17.5434427 15.399334,17.5434427 L15.3872167,17.55556 Z" id="Path" fill="#1D1D1B"></path>
                            <path d="M6.83239879,15.6894949 C6.35982387,15.6894949 5.89936625,15.6894949 5.42679133,15.6894949 C4.97845101,15.6894949 4.66340106,15.3744449 4.66340106,14.9261046 C4.66340106,14.2838874 4.66340106,13.6537875 4.66340106,13.0115703 C4.66340106,12.56323 4.97845101,12.2602973 5.41467402,12.24818 C6.37194118,12.24818 7.31709102,12.24818 8.27435818,12.24818 C8.72269849,12.24818 9.02563114,12.56323 9.03774844,12.999453 C9.03774844,13.6416702 9.03774844,14.2838874 9.03774844,14.9261046 C9.03774844,15.3623276 8.72269849,15.6773776 8.28647549,15.6773776 C7.80178325,15.6773776 7.31709102,15.6773776 6.83239879,15.6773776 L6.83239879,15.6894949 Z" id="Path" fill="#0079BF"></path>
                            <path d="M19.797916,12.2602973 C20.2704909,12.2602973 20.7309485,12.2602973 21.2035234,12.2602973 C21.6760983,12.2602973 21.9911483,12.5753473 21.9911483,13.0479222 C21.9911483,13.6780221 21.9911483,14.2960047 21.9911483,14.9261046 C21.9911483,15.3865622 21.6760983,15.7016122 21.2156407,15.7016122 C20.2704909,15.7016122 19.3374583,15.7016122 18.3923085,15.7016122 C17.9197336,15.7016122 17.6168009,15.3986795 17.6168009,14.9261046 C17.6168009,14.2960047 17.6168009,13.6659048 17.6168009,13.0358049 C17.6168009,12.5753473 17.9197336,12.2724146 18.3801912,12.2724146 C18.8527661,12.2724146 19.325341,12.2724146 19.797916,12.2724146 L19.797916,12.2602973 Z" id="Path" fill="#0079BF"></path>
                            <path d="M6.59005268,12.6359338 L7.17168336,12.6359338 C7.23226988,12.684403 7.23226988,12.7692242 7.2565045,12.8298107 C7.38979486,13.2660337 7.58367175,13.6659048 7.93507362,13.9688375 C8.08048129,14.1021278 8.26224087,14.186949 8.44400046,14.2354182 C8.50458699,14.2596528 8.57729082,14.2596528 8.62576005,14.3202393 C8.62576005,14.4292951 8.62576005,14.5383508 8.62576005,14.6474066 C8.62576005,15.0351604 8.38341393,15.3017411 7.99566015,15.3017411 C7.24438719,15.3138584 6.49311423,15.3017411 5.74184128,15.3017411 C5.3662048,15.3017411 5.13597599,15.059395 5.09962407,14.6716412 C5.09962407,14.5504681 5.09962407,14.4292951 5.09962407,14.308122 C5.31773557,14.2354182 5.56008169,14.2111836 5.75395858,14.0536586 C6.16594698,13.7507259 6.35982387,13.3145029 6.49311423,12.841928 C6.51734884,12.7692242 6.51734884,12.684403 6.57793537,12.6238165 L6.59005268,12.6359338 Z" id="Path" fill="#1D1D1B"></path>
                            <path d="M6.59005268,12.6359338 C6.49311423,13.2175645 6.27500273,13.7264913 5.7903105,14.0900105 C5.59643361,14.2475355 5.3662048,14.3323566 5.09962407,14.308122 C5.09962407,13.9809548 5.09962407,13.6537875 5.09962407,13.3266202 C5.09962407,12.8782799 5.35408749,12.6238165 5.8024278,12.6238165 C6.05689123,12.6238165 6.32347195,12.6238165 6.57793537,12.6238165 L6.59005268,12.6359338 Z" id="Path" fill="#FEDE00"></path>
                            <path d="M8.63787735,14.3323566 C8.22588896,14.2838874 7.91083901,14.0778932 7.66849289,13.7628433 C7.41402947,13.435676 7.2565045,13.0600395 7.18380066,12.6480511 C7.45038139,12.6480511 7.72907942,12.6480511 7.99566015,12.6480511 C8.38341393,12.6480511 8.63787735,12.9025145 8.63787735,13.2902683 C8.63787735,13.6416702 8.63787735,13.9930721 8.63787735,14.3444739 L8.63787735,14.3323566 Z" id="Path" fill="#FEDE00"></path>
                            <path d="M21.5912772,14.3323566 C21.5912772,14.4292951 21.5912772,14.5262335 21.5912772,14.623172 C21.5912772,15.0472777 21.3610484,15.3017411 20.9369427,15.3138584 C20.197787,15.3259757 19.4586314,15.3138584 18.7194757,15.3138584 C18.3074873,15.3138584 18.0651412,15.0472777 18.0651412,14.623172 C18.0651412,14.5262335 18.0651412,14.4292951 18.0651412,14.3323566 C18.1014931,14.2960047 18.1499624,14.2838874 18.1984316,14.2717701 C18.7921796,14.1627143 19.1072295,13.7386086 19.3374583,13.2296818 C19.4222795,13.0358049 19.4343968,12.8176934 19.5555698,12.6359338 C19.7494467,12.6359338 19.9433236,12.6359338 20.1372005,12.6359338 C20.197787,12.6965203 20.197787,12.7813415 20.2220217,12.8540453 C20.3916639,13.3387376 20.5976581,13.7991952 21.0459984,14.0900105 C21.1550542,14.1627143 21.2883446,14.2111836 21.4095176,14.2475355 C21.4701041,14.2717701 21.542808,14.2717701 21.5912772,14.3323566 Z" id="Path" fill="#1D1D1B"></path>
                            <path d="M19.5555698,12.6480511 C19.482866,13.1085087 19.3011064,13.5326144 18.9981738,13.8840163 C18.7558277,14.1627143 18.452895,14.3202393 18.0772585,14.3323566 C18.0772585,13.9809548 18.0772585,13.6295529 18.0772585,13.278151 C18.0772585,12.9025145 18.3438393,12.6480511 18.7194757,12.6359338 C18.9981738,12.6359338 19.2768718,12.6359338 19.5555698,12.6359338 L19.5555698,12.6480511 Z" id="Path" fill="#FEDE00"></path>
                            <path d="M21.5912772,14.3323566 C21.106585,14.2717701 20.7673004,14.0051894 20.5249543,13.6053183 C20.3431947,13.3023856 20.197787,12.9873357 20.1372005,12.6359338 C20.4037812,12.6359338 20.6824793,12.6359338 20.94906,12.6359338 C21.3368138,12.6359338 21.5912772,12.9025145 21.5912772,13.2902683 C21.5912772,13.6295529 21.5912772,13.9809548 21.5912772,14.3202393 L21.5912772,14.3323566 Z" id="Path" fill="#FEDE00"></path>
                        </g>
                    </g>
                </g>
            </g>
        </g>
    </g>
</svg>